# Blender v3.1.2 OBJ File: ''
# www.blender.org
o MountainsOuter_Cylinder
v 0.000000 0.000001 -32.000000
v 6.242890 0.000001 -31.385128
v 6.242890 16.000002 -31.385128
v 0.000000 16.000002 -32.000000
v 12.245871 0.000001 -29.564144
v 12.245871 16.000002 -29.564144
v 17.778248 0.000001 -26.607027
v 17.778248 16.000002 -26.607027
v 22.627417 0.000001 -22.627417
v 22.627417 16.000002 -22.627417
v 26.607027 0.000001 -17.778248
v 26.607027 16.000000 -17.778248
v 29.564144 0.000001 -12.245870
v 29.564144 16.000000 -12.245869
v 31.385128 0.000000 -6.242891
v 31.385128 16.000000 -6.242890
v 32.000000 -0.000000 0.000001
v 32.000000 16.000000 0.000002
v 31.385128 -0.000000 6.242890
v 31.385128 16.000000 6.242890
v 29.564146 -0.000001 12.245869
v 29.564146 15.999999 12.245870
v 26.607029 -0.000001 17.778246
v 26.607029 15.999999 17.778246
v 22.627417 -0.000001 22.627417
v 22.627417 15.999999 22.627417
v 17.778246 -0.000001 26.607029
v 17.778246 15.999999 26.607029
v 12.245872 -0.000001 29.564144
v 12.245872 15.999999 29.564144
v 6.242890 -0.000001 31.385130
v 6.242890 15.999999 31.385130
v -0.000003 -0.000001 32.000000
v -0.000003 15.999999 32.000000
v -6.242888 -0.000001 31.385130
v -6.242888 15.999999 31.385130
v -12.245870 -0.000001 29.564144
v -12.245870 15.999999 29.564144
v -17.778250 -0.000001 26.607025
v -17.778250 15.999999 26.607025
v -22.627415 -0.000001 22.627419
v -22.627415 15.999999 22.627419
v -26.607023 -0.000001 17.778254
v -26.607023 15.999999 17.778254
v -29.564144 -0.000001 12.245874
v -29.564144 15.999999 12.245875
v -31.385128 -0.000000 6.242892
v -31.385128 16.000000 6.242892
v -32.000000 0.000000 0.000000
v -32.000000 16.000000 0.000001
v -31.385128 0.000000 -6.242893
v -31.385128 16.000000 -6.242893
v -29.564142 0.000001 -12.245875
v -29.564142 16.000000 -12.245874
v -26.607031 0.000001 -17.778242
v -26.607031 16.000000 -17.778242
v -22.627420 0.000001 -22.627413
v -22.627420 16.000002 -22.627413
v -17.778250 0.000001 -26.607027
v -17.778250 16.000002 -26.607027
v -12.245870 0.000001 -29.564146
v -12.245870 16.000002 -29.564146
v -6.242887 0.000001 -31.385130
v -6.242887 16.000002 -31.385130
vt 8.000000 0.250000
vt 7.750000 0.250000
vt 7.750000 0.750000
vt 8.000000 0.750000
vt 7.500000 0.250000
vt 7.500000 0.750000
vt 7.250000 0.250000
vt 7.250000 0.750000
vt 7.000000 0.250000
vt 7.000000 0.750000
vt 6.750000 0.250000
vt 6.750000 0.750000
vt 6.500000 0.250000
vt 6.500000 0.750000
vt 6.250000 0.250000
vt 6.250000 0.750000
vt 6.000000 0.250000
vt 6.000000 0.750000
vt 5.750000 0.250000
vt 5.750000 0.750000
vt 5.500000 0.250000
vt 5.500000 0.750000
vt 5.250000 0.250000
vt 5.250000 0.750000
vt 5.000000 0.250000
vt 5.000000 0.750000
vt 4.750000 0.250000
vt 4.750000 0.750000
vt 4.500000 0.250000
vt 4.500000 0.750000
vt 4.250000 0.250000
vt 4.250000 0.750000
vt 4.000000 0.250000
vt 4.000000 0.750000
vt 3.750000 0.250000
vt 3.750000 0.750000
vt 3.500000 0.250000
vt 3.500000 0.750000
vt 3.250000 0.250000
vt 3.250000 0.750000
vt 3.000000 0.250000
vt 3.000000 0.750000
vt 2.750000 0.250000
vt 2.750000 0.750000
vt 2.500000 0.250000
vt 2.500000 0.750000
vt 2.250000 0.250000
vt 2.250000 0.750000
vt 2.000000 0.250000
vt 2.000000 0.750000
vt 1.750000 0.250000
vt 1.750000 0.750000
vt 1.500000 0.250000
vt 1.500000 0.750000
vt 1.250000 0.250000
vt 1.250000 0.750000
vt 1.000000 0.250000
vt 1.000000 0.750000
vt 0.750000 0.250000
vt 0.750000 0.750000
vt 0.500000 0.250000
vt 0.500000 0.750000
vt 0.250000 0.250000
vt 0.250000 0.750000
vt 0.000000 0.250000
vt 0.000000 0.750000
vn -0.0000 0.0000 1.0000
vn -0.1951 0.0000 0.9808
vn -0.3827 0.0000 0.9239
vn -0.5556 0.0000 0.8315
vn -0.7071 0.0000 0.7071
vn -0.8315 0.0000 0.5556
vn -0.9239 0.0000 0.3827
vn -0.9808 0.0000 0.1951
vn -1.0000 0.0000 -0.0000
vn -0.9808 0.0000 -0.1951
vn -0.9239 0.0000 -0.3827
vn -0.8315 0.0000 -0.5556
vn -0.7071 0.0000 -0.7071
vn -0.5556 0.0000 -0.8315
vn -0.3827 0.0000 -0.9239
vn -0.1951 0.0000 -0.9808
vn 0.0000 0.0000 -1.0000
vn 0.1951 0.0000 -0.9808
vn 0.3827 0.0000 -0.9239
vn 0.5556 0.0000 -0.8315
vn 0.7071 0.0000 -0.7071
vn 0.8315 0.0000 -0.5556
vn 0.9239 0.0000 -0.3827
vn 0.9808 0.0000 -0.1951
vn 1.0000 0.0000 -0.0000
vn 0.9808 0.0000 0.1951
vn 0.9239 0.0000 0.3827
vn 0.8315 0.0000 0.5556
vn 0.7071 0.0000 0.7071
vn 0.5556 0.0000 0.8315
vn 0.3827 0.0000 0.9239
vn 0.1951 0.0000 0.9808
s 1
f 1/1/1 2/2/2 3/3/2 4/4/1
f 2/2/2 5/5/3 6/6/3 3/3/2
f 5/5/3 7/7/4 8/8/4 6/6/3
f 7/7/4 9/9/5 10/10/5 8/8/4
f 9/9/5 11/11/6 12/12/6 10/10/5
f 11/11/6 13/13/7 14/14/7 12/12/6
f 13/13/7 15/15/8 16/16/8 14/14/7
f 15/15/8 17/17/9 18/18/9 16/16/8
f 17/17/9 19/19/10 20/20/10 18/18/9
f 19/19/10 21/21/11 22/22/11 20/20/10
f 21/21/11 23/23/12 24/24/12 22/22/11
f 23/23/12 25/25/13 26/26/13 24/24/12
f 25/25/13 27/27/14 28/28/14 26/26/13
f 27/27/14 29/29/15 30/30/15 28/28/14
f 29/29/15 31/31/16 32/32/16 30/30/15
f 31/31/16 33/33/17 34/34/17 32/32/16
f 33/33/17 35/35/18 36/36/18 34/34/17
f 35/35/18 37/37/19 38/38/19 36/36/18
f 37/37/19 39/39/20 40/40/20 38/38/19
f 39/39/20 41/41/21 42/42/21 40/40/20
f 41/41/21 43/43/22 44/44/22 42/42/21
f 43/43/22 45/45/23 46/46/23 44/44/22
f 45/45/23 47/47/24 48/48/24 46/46/23
f 47/47/24 49/49/25 50/50/25 48/48/24
f 49/49/25 51/51/26 52/52/26 50/50/25
f 51/51/26 53/53/27 54/54/27 52/52/26
f 53/53/27 55/55/28 56/56/28 54/54/27
f 55/55/28 57/57/29 58/58/29 56/56/28
f 57/57/29 59/59/30 60/60/30 58/58/29
f 59/59/30 61/61/31 62/62/31 60/60/30
f 61/61/31 63/63/32 64/64/32 62/62/31
f 63/63/32 1/65/1 4/66/1 64/64/32
o MountainsInner_Cylinder.001
v -11.313708 4.000000 -11.313709
v -8.889123 4.000000 -13.303514
v -8.889123 12.000001 -13.303513
v -11.313708 12.000001 -11.313708
v -6.122934 4.000000 -14.782073
v -6.122934 12.000001 -14.782072
v -3.121444 4.000000 -15.692565
v -3.121444 12.000001 -15.692564
v 0.000000 4.000000 -16.000000
v 0.000000 12.000001 -15.999999
v 3.121446 4.000000 -15.692564
v 3.121446 12.000001 -15.692563
v 6.122935 4.000000 -14.782072
v 6.122935 12.000001 -14.782071
v 8.889124 4.000000 -13.303514
v 8.889124 12.000001 -13.303513
v 11.313710 4.000000 -11.313707
v 11.313710 12.000001 -11.313706
v 13.303514 4.000000 -8.889123
v 13.303514 12.000000 -8.889122
v 14.782074 4.000000 -6.122935
v 14.782074 12.000000 -6.122934
v 15.692566 4.000000 -3.121446
v 15.692566 12.000000 -3.121445
v 16.000000 4.000000 0.000000
v 16.000000 12.000000 0.000001
v 15.692565 4.000000 3.121447
v 15.692565 12.000000 3.121448
v 14.782073 4.000000 6.122935
v 14.782073 12.000000 6.122935
v 13.303514 4.000000 8.889126
v 13.303514 12.000000 8.889127
v 11.313707 4.000000 11.313710
v 11.313707 11.999999 11.313711
v 8.889125 4.000000 13.303514
v 8.889125 11.999999 13.303514
v 6.122934 3.999999 14.782073
v 6.122934 11.999999 14.782074
v 3.121442 3.999999 15.692564
v 3.121442 11.999999 15.692565
v 0.000000 3.999999 16.000000
v 0.000000 11.999999 16.000000
v -3.121443 3.999999 15.692566
v -3.121443 11.999999 15.692567
v -6.122934 3.999999 14.782074
v -6.122934 11.999999 14.782075
v -8.889124 4.000000 13.303514
v -8.889124 11.999999 13.303514
v -11.313709 4.000000 11.313708
v -11.313709 11.999999 11.313709
v -13.303515 4.000000 8.889122
v -13.303515 12.000000 8.889123
v -14.782074 4.000000 6.122931
v -14.782074 12.000000 6.122931
v -15.692564 4.000000 3.121448
v -15.692564 12.000000 3.121449
v -16.000000 4.000000 0.000002
v -16.000000 12.000000 0.000003
v -15.692566 4.000000 -3.121445
v -15.692566 12.000000 -3.121444
v -14.782073 4.000000 -6.122936
v -14.782073 12.000000 -6.122935
v -13.303514 4.000000 -8.889126
v -13.303514 12.000000 -8.889125
vt 0.000000 0.250000
vt 0.250000 0.250000
vt 0.250000 0.750000
vt 0.000000 0.750000
vt 0.500000 0.250000
vt 0.500000 0.750000
vt 0.750000 0.250000
vt 0.750000 0.750000
vt 1.000000 0.250000
vt 1.000000 0.750000
vt 1.250000 0.250000
vt 1.250000 0.750000
vt 1.500000 0.250000
vt 1.500000 0.750000
vt 1.750000 0.250000
vt 1.750000 0.750000
vt 2.000000 0.250000
vt 2.000000 0.750000
vt 2.250000 0.250000
vt 2.250000 0.750000
vt 2.500000 0.250000
vt 2.500000 0.750000
vt 2.750000 0.250000
vt 2.750000 0.750000
vt 3.000000 0.250000
vt 3.000000 0.750000
vt 3.250000 0.250000
vt 3.250000 0.750000
vt 3.500000 0.250000
vt 3.500000 0.750000
vt 3.750000 0.250000
vt 3.750000 0.750000
vt 4.000000 0.250000
vt 4.000000 0.750000
vt 4.250000 0.250000
vt 4.250000 0.750000
vt 4.500000 0.250000
vt 4.500000 0.750000
vt 4.750000 0.250000
vt 4.750000 0.750000
vt 5.000000 0.250000
vt 5.000000 0.750000
vt 5.250000 0.250000
vt 5.250000 0.750000
vt 5.500000 0.250000
vt 5.500000 0.750000
vt 5.750000 0.250000
vt 5.750000 0.750000
vt 6.000000 0.250000
vt 6.000000 0.750000
vt 6.250000 0.250000
vt 6.250000 0.750000
vt 6.500000 0.250000
vt 6.500000 0.750000
vt 6.750000 0.250000
vt 6.750000 0.750000
vt 7.000000 0.250000
vt 7.000000 0.750000
vt 7.250000 0.250000
vt 7.250000 0.750000
vt 7.500000 0.250000
vt 7.500000 0.750000
vt 7.750000 0.250000
vt 7.750000 0.750000
vt 8.000000 0.250000
vt 8.000000 0.750000
vn 0.7071 -0.0000 0.7071
vn 0.5556 -0.0000 0.8315
vn 0.3827 -0.0000 0.9239
vn 0.1951 -0.0000 0.9808
vn 0.0000 -0.0000 1.0000
vn -0.1951 -0.0000 0.9808
vn -0.3827 -0.0000 0.9239
vn -0.5556 -0.0000 0.8315
vn -0.7071 -0.0000 0.7071
vn -0.8315 -0.0000 0.5556
vn -0.9239 -0.0000 0.3827
vn -0.9808 0.0000 0.1951
vn -1.0000 0.0000 -0.0000
vn -0.9808 0.0000 -0.1951
vn -0.9239 0.0000 -0.3827
vn -0.8315 0.0000 -0.5556
vn -0.7071 0.0000 -0.7071
vn -0.5556 0.0000 -0.8315
vn -0.3827 0.0000 -0.9239
vn -0.1951 0.0000 -0.9808
vn -0.0000 0.0000 -1.0000
vn 0.1951 0.0000 -0.9808
vn 0.3827 0.0000 -0.9239
vn 0.5556 0.0000 -0.8315
vn 0.7071 0.0000 -0.7071
vn 0.8315 0.0000 -0.5556
vn 0.9239 0.0000 -0.3827
vn 0.9808 -0.0000 -0.1951
vn 1.0000 -0.0000 -0.0000
vn 0.9808 0.0000 0.1951
vn 0.9239 -0.0000 0.3827
vn 0.8315 -0.0000 0.5556
s 1
f 65/67/33 66/68/34 67/69/34 68/70/33
f 66/68/34 69/71/35 70/72/35 67/69/34
f 69/71/35 71/73/36 72/74/36 70/72/35
f 71/73/36 73/75/37 74/76/37 72/74/36
f 73/75/37 75/77/38 76/78/38 74/76/37
f 75/77/38 77/79/39 78/80/39 76/78/38
f 77/79/39 79/81/40 80/82/40 78/80/39
f 79/81/40 81/83/41 82/84/41 80/82/40
f 81/83/41 83/85/42 84/86/42 82/84/41
f 83/85/42 85/87/43 86/88/43 84/86/42
f 85/87/43 87/89/44 88/90/44 86/88/43
f 87/89/44 89/91/45 90/92/45 88/90/44
f 89/91/45 91/93/46 92/94/46 90/92/45
f 91/93/46 93/95/47 94/96/47 92/94/46
f 93/95/47 95/97/48 96/98/48 94/96/47
f 95/97/48 97/99/49 98/100/49 96/98/48
f 97/99/49 99/101/50 100/102/50 98/100/49
f 99/101/50 101/103/51 102/104/51 100/102/50
f 101/103/51 103/105/52 104/106/52 102/104/51
f 103/105/52 105/107/53 106/108/53 104/106/52
f 105/107/53 107/109/54 108/110/54 106/108/53
f 107/109/54 109/111/55 110/112/55 108/110/54
f 109/111/55 111/113/56 112/114/56 110/112/55
f 111/113/56 113/115/57 114/116/57 112/114/56
f 113/115/57 115/117/58 116/118/58 114/116/57
f 115/117/58 117/119/59 118/120/59 116/118/58
f 117/119/59 119/121/60 120/122/60 118/120/59
f 119/121/60 121/123/61 122/124/61 120/122/60
f 121/123/61 123/125/62 124/126/62 122/124/61
f 123/125/62 125/127/63 126/128/63 124/126/62
f 125/127/63 127/129/64 128/130/64 126/128/63
f 127/129/64 65/131/33 68/132/33 128/130/64
